<svg width="630" height="137" viewBox="0 0 630 137" fill="none" xmlns="http://www.w3.org/2000/svg">
<g clip-path="url(#clip0_5076_114354)">
<path d="M94.251 69.1801C94.251 86.1626 80.4829 99.9128 63.5004 99.9128C46.5179 99.9128 32.7676 86.1626 32.7676 69.1801C32.7676 52.1976 46.5179 38.4473 63.5004 38.4473C80.4829 38.4473 94.251 52.2154 94.251 69.1801Z" fill="#E02826"/>
<path d="M44.3944 22.9471C39.7158 22.9471 35.9121 19.1434 35.9121 14.4647C35.9121 9.78607 39.7158 5.98242 44.3944 5.98242C49.0731 5.98242 52.8768 9.78607 52.8768 14.4647C52.8768 19.1434 49.0731 22.9471 44.3944 22.9471Z" fill="#F78F1E"/>
<path d="M12.6788 55.0904C5.67869 55.0904 0 49.3938 0 42.3937C0 35.3935 5.67869 29.7148 12.6788 29.7148C19.679 29.7148 25.3577 35.3935 25.3577 42.3937C25.3577 49.3938 19.679 55.0904 12.6788 55.0904Z" fill="#F78F1E"/>
<path d="M88.4833 136.36C80.5903 136.36 74.1973 129.949 74.1973 122.092C74.1973 114.234 80.5903 107.806 88.4833 107.806C96.3763 107.806 102.769 114.181 102.769 122.092C102.769 130.003 96.3584 136.36 88.4833 136.36Z" fill="#F78F1E"/>
<path d="M33.8579 130.556C27.9114 130.556 23.0898 125.467 23.0898 119.216C23.0898 112.966 27.9114 107.877 33.8579 107.877C39.8045 107.877 44.626 112.966 44.626 119.216C44.626 125.467 39.8045 130.556 33.8579 130.556Z" fill="#F78F1E"/>
<path d="M119.128 98.4843C114.807 98.4843 111.307 94.8235 111.307 90.2877C111.307 85.7519 114.825 82.0732 119.128 82.0732C123.432 82.0732 126.914 85.734 126.914 90.2877C126.914 94.8414 123.432 98.4843 119.128 98.4843Z" fill="#F78F1E"/>
<path d="M8.44633 93.573C3.80337 93.573 0.0175781 89.8051 0.0175781 85.1621C0.0175781 80.5192 3.78551 76.7334 8.44633 76.7334C13.1071 76.7334 16.8572 80.5013 16.8572 85.1621C16.8572 89.823 13.1071 93.573 8.44633 93.573Z" fill="#F78F1E"/>
<path d="M92.4481 30.8221C83.9301 30.8221 77.0371 23.9291 77.0371 15.411C77.0371 6.893 83.9301 0 92.4481 0C100.966 0 107.841 6.893 107.841 15.411C107.841 23.9291 100.948 30.8221 92.4481 30.8221Z" fill="#F78F1E"/>
<path d="M119.664 61.3758C114.574 61.3758 110.449 57.2329 110.449 52.1435C110.449 47.0541 114.574 42.9111 119.664 42.9111C124.753 42.9111 128.878 47.0362 128.878 52.1435C128.878 57.2507 124.753 61.3758 119.664 61.3758Z" fill="#F78F1E"/>
<path d="M158.789 43.5364H163.736V58.501C164.896 57.0188 165.932 55.9652 166.861 55.3581C168.432 54.3045 170.414 53.7866 172.772 53.7866C177.004 53.7866 179.861 55.2688 181.361 58.2331C182.182 59.8582 182.593 62.1082 182.593 64.9833V83.7515H177.557V65.3226C177.557 63.1797 177.289 61.6082 176.736 60.5903C175.843 58.9832 174.182 58.1974 171.736 58.1974C169.7 58.1974 167.861 58.8939 166.218 60.3046C164.575 61.7154 163.753 64.3583 163.753 68.2512V83.7515H158.807V43.5186L158.789 43.5364Z" fill="#1C192F"/>
<path d="M189.879 43.6973H194.825V49.3402H189.879V43.6973ZM189.879 54.6618H194.825V83.7695H189.879V54.6618Z" fill="#1C192F"/>
<path d="M205.255 74.5551C205.398 76.1444 205.827 77.3766 206.505 78.2338C207.755 79.7874 209.934 80.5553 213.041 80.5553C214.88 80.5553 216.523 80.1624 217.916 79.3767C219.327 78.5909 220.023 77.3945 220.023 75.7516C220.023 74.5194 219.47 73.573 218.345 72.9301C217.63 72.5372 216.202 72.0729 214.095 71.5372L210.148 70.555C207.63 69.93 205.755 69.2514 204.559 68.4836C202.416 67.1621 201.362 65.3228 201.362 62.9656C201.362 60.1977 202.38 57.9655 204.38 56.2512C206.398 54.5368 209.112 53.6797 212.523 53.6797C216.97 53.6797 220.184 54.9833 222.166 57.5726C223.398 59.2155 223.988 60.9834 223.952 62.8942H219.345C219.255 61.787 218.845 60.787 218.13 59.8762C216.97 58.5905 214.97 57.9476 212.112 57.9476C210.202 57.9476 208.755 58.3048 207.791 59.0012C206.809 59.6977 206.309 60.6441 206.309 61.787C206.309 63.0549 206.952 64.0728 208.237 64.8228C208.969 65.2692 210.059 65.6799 211.505 66.0192L214.809 66.8228C218.398 67.68 220.809 68.5014 222.023 69.305C223.934 70.555 224.881 72.5372 224.881 75.2337C224.881 77.9302 223.881 80.0731 221.898 81.966C219.916 83.8589 216.88 84.8053 212.809 84.8053C208.416 84.8053 205.309 83.8232 203.487 81.8589C201.666 79.8945 200.684 77.448 200.559 74.5551H205.255Z" fill="#1C192F"/>
<path d="M229.897 54.6621H234.754V58.4658C235.736 57.1443 236.808 56.1443 237.951 55.4121C239.594 54.3407 241.54 53.7871 243.754 53.7871C247.058 53.7871 249.844 55.055 252.148 57.6086C254.451 60.1622 255.594 63.7873 255.594 68.5196C255.594 74.9125 253.933 79.4662 250.612 82.2163C248.505 83.9485 246.058 84.8235 243.254 84.8235C241.058 84.8235 239.219 84.3413 237.719 83.377C236.844 82.8413 235.879 81.9127 234.808 80.5912V95.413H229.861V54.6621H229.897ZM248.255 77.6447C249.755 75.7161 250.505 72.8232 250.505 68.966C250.505 66.6267 250.183 64.6088 249.505 62.9123C248.255 59.6622 245.969 58.0372 242.629 58.0372C239.29 58.0372 236.986 59.7515 235.754 63.1802C235.094 65.0195 234.754 67.341 234.754 70.1625C234.754 72.4304 235.094 74.3768 235.754 75.9661C237.004 79.0198 239.29 80.5377 242.629 80.5377C244.879 80.5377 246.755 79.5734 248.255 77.6447Z" fill="#1C192F"/>
<path d="M277.041 66.0192C278.166 65.8764 278.916 65.3942 279.309 64.6085C279.541 64.1799 279.666 63.5549 279.666 62.7513C279.666 61.1084 279.077 59.912 277.88 59.1619C276.702 58.4119 275.005 58.0548 272.791 58.0548C270.237 58.0548 268.416 58.7334 267.362 60.0905C266.755 60.8406 266.38 61.9656 266.202 63.4477H261.594C261.684 59.8405 262.844 57.3405 265.094 55.9119C267.344 54.5011 269.934 53.8047 272.898 53.8047C276.327 53.8047 279.113 54.4833 281.255 55.8226C283.381 57.1619 284.452 59.2155 284.452 61.9656V78.7159C284.452 79.2159 284.559 79.6267 284.756 79.9481C284.97 80.2517 285.398 80.4124 286.059 80.4124C286.273 80.4124 286.523 80.4124 286.791 80.3767C287.059 80.341 287.345 80.3052 287.666 80.2517V83.9125C286.898 84.1268 286.309 84.2696 285.916 84.3232C285.523 84.3768 284.97 84.4125 284.273 84.4125C282.577 84.4125 281.345 83.8053 280.595 82.591C280.184 81.9481 279.916 81.0374 279.755 79.8767C278.755 81.216 277.327 82.3767 275.452 83.3589C273.577 84.341 271.523 84.8411 269.273 84.8411C266.559 84.8411 264.344 84.0196 262.63 82.3589C260.916 80.6981 260.059 78.6266 260.059 76.1444C260.059 73.4122 260.898 71.3051 262.594 69.805C264.291 68.305 266.505 67.3764 269.237 67.0371L277.059 66.0549L277.041 66.0192ZM266.702 79.3231C267.737 80.1445 268.969 80.5553 270.38 80.5553C272.095 80.5553 273.773 80.1445 275.398 79.3409C278.13 78.0016 279.488 75.823 279.488 72.8051V68.8586C278.898 69.2693 278.13 69.6086 277.184 69.8765C276.237 70.1443 275.327 70.3229 274.434 70.43L271.487 70.7693C269.719 70.9836 268.38 71.3408 267.469 71.8586C265.934 72.7158 265.166 74.073 265.166 75.9659C265.166 77.3945 265.684 78.5016 266.719 79.3231" fill="#1C192F"/>
<path d="M292.416 54.4834H297.113V58.6799C298.488 56.9656 299.952 55.7334 301.488 54.9834C303.023 54.2334 304.756 53.8584 306.631 53.8584C310.774 53.8584 313.559 55.3049 315.024 58.1978C315.827 59.7871 316.22 62.0371 316.22 65.0015V83.7519H311.274V65.3229C311.274 63.5372 311.006 62.1086 310.488 61.0193C309.613 59.1978 308.041 58.2871 305.738 58.2871C304.577 58.2871 303.613 58.4121 302.881 58.6442C301.541 59.0371 300.345 59.8407 299.327 61.055C298.505 62.0193 297.97 63.0193 297.738 64.0372C297.488 65.0729 297.363 66.5372 297.363 68.448V83.7519H292.416V54.4656V54.4834Z" fill="#1C192F"/>
<path d="M323.508 43.6973H328.454V49.3402H323.508V43.6973ZM323.508 54.6618H328.454V83.7695H323.508V54.6618Z" fill="#1C192F"/>
<path d="M355.312 56.1087C357.365 57.7159 358.615 60.466 359.044 64.3946H354.258C353.972 62.591 353.294 61.1088 352.258 59.9124C351.204 58.7338 349.544 58.1266 347.222 58.1266C344.061 58.1266 341.811 59.6445 340.454 62.6982C339.579 64.6803 339.133 67.109 339.133 70.0197C339.133 72.9305 339.758 75.3948 341.008 77.377C342.258 79.3771 344.222 80.3771 346.901 80.3771C348.954 80.3771 350.579 79.7521 351.776 78.5199C352.972 77.2699 353.812 75.5913 354.258 73.4305H359.044C358.508 77.3056 357.133 80.1628 354.954 81.9486C352.776 83.7522 349.972 84.645 346.579 84.645C342.758 84.645 339.704 83.2522 337.436 80.4485C335.168 77.6628 334.025 74.1627 334.025 69.984C334.025 64.8589 335.275 60.8588 337.758 58.0016C340.258 55.1444 343.418 53.7158 347.276 53.7158C350.561 53.7158 353.258 54.5194 355.312 56.1266" fill="#1C192F"/>
<path d="M375.15 83.7693H367.418V59.7866H363.168V54.3044H367.329V52.3758C367.329 49.1435 367.865 46.9292 368.936 45.697C370.061 43.9649 372.775 43.0898 377.115 43.0898C377.597 43.0898 378.061 43.0898 378.454 43.1077C378.847 43.1077 379.4 43.1434 380.097 43.1791V49.5186C379.65 49.5186 378.918 49.5185 377.883 49.4828C377.829 49.4828 377.775 49.4828 377.722 49.4828C376.775 49.4828 376.115 49.715 375.74 50.1793C375.347 50.6614 375.15 51.1972 375.15 51.7865V54.3044H380.186V59.7866H375.15V83.7693Z" fill="#1C192F"/>
<path d="M397.08 59.6087C395.08 59.6087 393.545 60.1623 392.437 61.2694C391.348 62.3766 390.652 63.8766 390.366 65.7695H403.741C403.598 63.7516 402.902 62.2159 401.67 61.1623C400.438 60.1087 398.902 59.5908 397.063 59.5908M397.402 84.7163C393.473 84.7163 389.991 83.502 386.973 81.0555C383.955 78.6091 382.455 74.6447 382.455 69.1446C382.455 63.9838 383.812 60.0373 386.527 57.2872C389.241 54.5371 392.759 53.1621 397.098 53.1621C399.67 53.1621 401.991 53.6264 404.045 54.555C406.098 55.4836 407.813 56.9479 409.152 58.9479C410.366 60.7158 411.152 62.7516 411.509 65.0909C411.724 66.4481 411.795 68.4303 411.759 70.9839H390.259C390.384 73.9661 391.402 76.0554 393.348 77.2519C394.527 78.0019 395.937 78.3769 397.598 78.3769C399.348 78.3769 400.777 77.9305 401.884 77.0198C402.473 76.5376 403.009 75.859 403.473 74.984H411.384C411.17 76.7519 410.224 78.5555 408.509 80.377C405.866 83.2699 402.152 84.7163 397.384 84.7163" fill="#1C192F"/>
<path d="M428.705 60.0372C426.455 60.0372 424.795 60.9122 423.741 62.6444C422.687 64.3944 422.152 66.5373 422.152 69.1088C422.152 71.8946 422.687 74.1089 423.759 75.7696C424.83 77.4304 426.473 78.2697 428.652 78.2697C430.83 78.2697 432.491 77.4483 433.634 75.7875C434.777 74.1268 435.348 71.9839 435.348 69.3588C435.348 65.6802 434.42 63.0551 432.58 61.4658C431.473 60.5015 430.17 60.0372 428.688 60.0372M426.384 84.7163C422.92 84.7163 419.991 83.3055 417.634 80.5019C415.259 77.6804 414.08 74.0732 414.08 69.6624C414.08 64.573 415.241 60.5729 417.58 57.6621C419.902 54.7514 423.027 53.287 426.92 53.287C428.723 53.287 430.313 53.6799 431.705 54.4656C433.098 55.2514 434.241 56.3407 435.098 57.7514V43.5547H442.92V83.7877H435.456V79.7697C434.348 81.5019 433.08 82.7698 431.67 83.5555C430.259 84.3413 428.491 84.7341 426.384 84.7341" fill="#1C192F"/>
<path d="M462.313 59.6087C460.313 59.6087 458.777 60.1623 457.67 61.2694C456.581 62.3766 455.884 63.8766 455.598 65.7695H468.974C468.831 63.7516 468.152 62.2159 466.902 61.1623C465.67 60.1087 464.134 59.5908 462.295 59.5908M462.634 84.7163C458.706 84.7163 455.223 83.502 452.205 81.0555C449.188 78.6091 447.688 74.6447 447.688 69.1446C447.688 63.9838 449.045 60.0373 451.759 57.2872C454.473 54.5371 457.991 53.1621 462.331 53.1621C464.902 53.1621 467.224 53.6264 469.277 54.555C471.331 55.4836 473.045 56.9479 474.384 58.9479C475.599 60.7158 476.385 62.7516 476.742 65.0909C476.956 66.4481 477.027 68.4303 476.992 70.9839H455.509C455.634 73.9661 456.652 76.0554 458.581 77.2519C459.759 78.0019 461.17 78.3769 462.831 78.3769C464.599 78.3769 466.009 77.9305 467.116 77.0198C467.706 76.5376 468.242 75.859 468.706 74.984H476.617C476.402 76.7519 475.456 78.5555 473.742 80.377C471.099 83.2699 467.384 84.7163 462.616 84.7163" fill="#1C192F"/>
<path d="M488.867 83.7699H481.045V53.9657H488.42V59.1801C489.634 57.1979 490.688 55.8407 491.581 55.1086C493.045 53.8943 494.938 53.2871 497.295 53.2871C497.438 53.2871 497.563 53.2871 497.67 53.305C497.777 53.305 497.992 53.3407 498.349 53.3764V61.2873C497.849 61.2516 497.42 61.2337 497.027 61.2158C496.652 61.2158 496.331 61.2158 496.099 61.2158C492.956 61.2158 490.849 62.2337 489.777 64.2695C489.17 65.4124 488.867 67.1803 488.867 69.5732V83.8056V83.7699Z" fill="#1C192F"/>
<path d="M519.369 69.2156C518.869 69.537 518.369 69.787 517.869 69.9656C517.369 70.162 516.672 70.3406 515.797 70.5013L514.03 70.8228C512.387 71.1264 511.208 71.4835 510.494 71.8942C509.297 72.6085 508.708 73.7157 508.708 75.2336C508.708 76.5729 509.083 77.5551 509.815 78.1444C510.547 78.7515 511.458 79.0372 512.512 79.0372C514.19 79.0372 515.744 78.5372 517.155 77.5551C518.565 76.555 519.315 74.7514 519.369 72.1264V69.1977V69.2156ZM510.244 84.7159C507.547 84.7159 505.315 83.948 503.547 82.3944C501.797 80.8408 500.904 78.6622 500.904 75.8229C500.904 72.1442 502.315 69.4835 505.154 67.8406C506.708 66.9477 508.994 66.3048 511.994 65.912L514.655 65.5905C516.101 65.4119 517.119 65.1798 517.744 64.8941C518.851 64.4119 519.423 63.6798 519.423 62.6619C519.423 61.4476 518.994 60.5904 518.137 60.1261C517.28 59.6618 516.03 59.4297 514.369 59.4297C512.512 59.4297 511.208 59.894 510.44 60.7869C509.887 61.4654 509.529 62.3583 509.333 63.5012H501.869C502.029 60.9297 502.761 58.8047 504.065 57.1439C506.119 54.5546 509.672 53.251 514.69 53.251C517.958 53.251 520.869 53.8938 523.387 55.1439C525.923 56.4118 527.191 58.8404 527.191 62.4655V76.1979C527.191 77.1443 527.208 78.3051 527.244 79.6622C527.298 80.6801 527.458 81.3587 527.726 81.7159C527.976 82.073 528.387 82.3766 528.905 82.6087V83.7338H520.405C520.173 83.1445 520.012 82.573 519.905 82.0552C519.815 81.5373 519.744 80.9301 519.69 80.2694C518.619 81.4301 517.369 82.4302 515.958 83.2516C514.28 84.2159 512.369 84.6981 510.262 84.6981" fill="#1C192F"/>
<path d="M543.084 84.2156C539.851 84.2156 537.601 83.5728 536.351 82.287C535.459 81.3942 535.03 80.0191 535.03 78.1619V59.7866H530.869V54.3043H535.03V45.9648H542.852V54.3043H547.727V59.7866H542.852V75.5548C542.852 76.7691 543.012 77.5369 543.316 77.8405C543.619 78.1441 544.584 78.2869 546.173 78.2869C546.405 78.2869 546.655 78.287 546.923 78.2691C547.191 78.2691 547.441 78.2334 547.709 78.1977V84.0192L543.977 84.1978C543.673 84.1978 543.369 84.1978 543.084 84.1978" fill="#1C192F"/>
<path d="M560.423 50.483H552.602V43.2686H560.423V50.483ZM560.423 83.7694H552.602V53.9652H560.423V83.7694Z" fill="#1C192F"/>
<path d="M581.531 59.5188C579.245 59.5188 577.477 60.3224 576.245 61.9475C575.013 63.5725 574.388 65.8761 574.388 68.8762C574.388 71.8762 575.013 74.1977 576.245 75.8406C577.477 77.4656 579.245 78.2871 581.531 78.2871C583.817 78.2871 585.585 77.4656 586.799 75.8406C588.031 74.1977 588.638 71.8941 588.638 68.8762C588.638 65.8582 588.031 63.5546 586.799 61.9475C585.567 60.3224 583.817 59.5188 581.531 59.5188ZM581.513 84.7158C576.406 84.7158 572.584 83.18 570.084 80.0728C567.566 76.9835 566.316 73.2691 566.316 68.9119C566.316 64.5547 567.584 60.9296 570.084 57.7867C572.602 54.6437 576.406 53.0723 581.513 53.0723C586.62 53.0723 590.442 54.6437 592.96 57.7867C595.478 60.9296 596.728 64.6261 596.728 68.9119C596.728 73.1977 595.478 76.9835 592.96 80.0728C590.442 83.1622 586.638 84.7158 581.513 84.7158Z" fill="#1C192F"/>
<path d="M629.032 83.7699H620.96V65.6088C620.96 64.0373 620.764 62.8409 620.353 62.0016C619.603 60.4658 618.192 59.698 616.103 59.698C613.549 59.698 611.781 60.823 610.835 63.073C610.335 64.2695 610.103 65.7695 610.103 67.6267V83.7877H602.281V53.9836H609.835V58.3408C610.817 56.8229 611.764 55.7336 612.639 55.0729C614.228 53.8764 616.228 53.2871 618.657 53.2871C621.71 53.2871 624.192 54.0907 626.121 55.68C628.068 57.2693 629.032 59.948 629.032 63.6802V83.7877V83.7699Z" fill="#1C192F"/>
</g>
<defs>
<clipPath id="clip0_5076_114354">
<rect width="629.031" height="136.36" fill="white"/>
</clipPath>
</defs>
</svg>
